<svg xmlns="http://www.w3.org/2000/svg" xmlns:xlink="http://www.w3.org/1999/xlink" width="128" height="128" version="1.0"><defs><linearGradient id="h"><stop offset="0" stop-color="#63452c"/><stop offset=".6" stop-color="#b5835a"/><stop offset="1" stop-color="#986a44"/></linearGradient><linearGradient id="g"><stop offset="0" stop-color="#63452c"/><stop offset="1" stop-color="#63452c"/></linearGradient><linearGradient id="f"><stop offset="0" stop-color="#77767b"/><stop offset=".32" stop-color="#c0bfbc"/><stop offset=".7" stop-color="#9a9996"/><stop offset=".82" stop-color="#c0bfbc"/><stop offset="1" stop-color="#9a9996"/></linearGradient><linearGradient id="e"><stop offset="0" stop-color="#e01b24"/><stop offset="1" stop-color="#e66100"/></linearGradient><linearGradient id="d"><stop offset="0" stop-color="#5e5c64"/><stop offset=".32" stop-color="#f6f5f4"/><stop offset=".7" stop-color="#9a9996"/><stop offset=".82" stop-color="#eeeeec"/><stop offset="1" stop-color="#5e5c64"/></linearGradient><linearGradient id="a"><stop offset="0" stop-color="#d5d3cf"/><stop offset="1" stop-color="#f6f5f4"/></linearGradient><linearGradient id="b"><stop offset="0" stop-color="#d5d3cf"/><stop offset="1" stop-color="#949390"/></linearGradient><linearGradient id="c"><stop offset="0" stop-color="#9a9996"/><stop offset="1" stop-color="#77767b"/></linearGradient><linearGradient xlink:href="#d" id="i" x1="14" y1="246" x2="114" y2="246" gradientUnits="userSpaceOnUse"/><clipPath clipPathUnits="userSpaceOnUse" id="k"><circle cx="64" cy="238" r="46" fill="#c0bfbc" stroke-width="2" stroke-linecap="square" stroke-linejoin="round"/></clipPath><linearGradient xlink:href="#e" id="l" x1="24" y1="204" x2="120" y2="244" gradientUnits="userSpaceOnUse"/><linearGradient xlink:href="#f" id="j" x1="18" y1="226" x2="110" y2="226" gradientUnits="userSpaceOnUse" gradientTransform="translate(-128)"/><linearGradient xlink:href="#g" id="m" x1="84" y1="224" x2="84" y2="232" gradientUnits="userSpaceOnUse" gradientTransform="scale(1 -1) rotate(45 619.476 14.4)"/><linearGradient xlink:href="#h" id="n" x1="96" y1="224" x2="96" y2="232" gradientUnits="userSpaceOnUse" gradientTransform="scale(1 -1) rotate(45 619.476 14.4)"/></defs><g transform="translate(0 -172)"><path fill="#5e5c64" d="M14.022 228h99.956v20H14.022z"/><circle r="50" cy="246" cx="64" fill="url(#i)"/><path d="M16 238H8v-16h8" fill="none" stroke="#5e5c64" stroke-width="4" stroke-linejoin="round"/><path d="M16 236H8v-16h8" fill="none" stroke="#f6f5f4" stroke-width="4" stroke-linejoin="round"/><path d="M112 238h8v-16h-8" fill="none" stroke="#5e5c64" stroke-width="4" stroke-linejoin="round"/><path d="M112 236h8v-16h-8" fill="none" stroke="#f6f5f4" stroke-width="4" stroke-linejoin="round"/><circle cx="205.061" cy="114.551" r="50" transform="rotate(45)" fill="#f6f5f4"/><circle r="46" cy="226" cx="-64" transform="scale(-1 1)" fill="url(#j)"/><circle cx="64" cy="226" r="46" clip-path="url(#k)" fill="url(#l)"/><path d="M70 233l49.497-49.497" fill="url(#m)" stroke="url(#n)" stroke-width="8" stroke-linecap="round"/><path d="M113.959 244.828A50 50 0 0 1 64 294a50 50 0 0 1-49.959-48.828A50 50 0 0 0 14 246a50 50 0 0 0 50 50 50 50 0 0 0 50-50 50 50 0 0 0-.041-1.172z" fill="#77767b"/></g></svg>