<?xml version="1.0" encoding="UTF-8" standalone="no"?>
<!-- Created with Inkscape (http://www.inkscape.org/) -->

<svg
   xmlns:dc="http://purl.org/dc/elements/1.1/"
   xmlns:cc="http://creativecommons.org/ns#"
   xmlns:rdf="http://www.w3.org/1999/02/22-rdf-syntax-ns#"
   xmlns:svg="http://www.w3.org/2000/svg"
   xmlns="http://www.w3.org/2000/svg"
   xmlns:sodipodi="http://sodipodi.sourceforge.net/DTD/sodipodi-0.dtd"
   xmlns:inkscape="http://www.inkscape.org/namespaces/inkscape"
   sodipodi:docname="halal-content-symbolic.svg"
   height="16.002121"
   id="svg5082"
   version="1.1"
   inkscape:version="0.92.2 5c3e80d, 2017-08-06"
   viewBox="0 0 16 16.002121"
   width="16">
  <defs
     id="defs5084" />
  <sodipodi:namedview
     bordercolor="#000000"
     borderopacity="0.34509804"
     inkscape:current-layer="layer1"
     inkscape:cx="-1.227246"
     inkscape:cy="6.515626"
     inkscape:document-units="px"
     inkscape:grid-bbox="true"
     id="base"
     inkscape:measure-end="0,0"
     inkscape:measure-start="0,0"
     inkscape:object-nodes="true"
     pagecolor="#535353"
     inkscape:pageopacity="0"
     inkscape:pageshadow="2"
     showgrid="false"
     inkscape:snap-bbox="true"
     inkscape:snap-global="true"
     inkscape:window-height="832"
     inkscape:window-maximized="1"
     inkscape:window-width="1600"
     inkscape:window-x="0"
     inkscape:window-y="32"
     inkscape:zoom="16">
    <inkscape:grid
       empspacing="4"
       id="grid5636"
       originx="-48"
       originy="-176"
       type="xygrid" />
  </sodipodi:namedview>
  <metadata
     id="metadata5087">
    <rdf:RDF>
      <cc:Work
         rdf:about="">
        <dc:format>image/svg+xml</dc:format>
        <dc:type
           rdf:resource="http://purl.org/dc/dcmitype/StillImage" />
        <dc:title></dc:title>
      </cc:Work>
    </rdf:RDF>
  </metadata>
  <g
     inkscape:groupmode="layer"
     id="layer1"
     inkscape:label="apps"
     transform="translate(-48,176.00212)">
    <path
       style="fill:#bebebe;fill-opacity:1;stroke-width:0.00935098"
       d="m 49.995005,-164.06765 c -0.616026,-0.0474 -1.079278,-0.34001 -1.330161,-0.84026 -0.119725,-0.23872 -0.165395,-0.44739 -0.164818,-0.75307 8.76e-4,-0.46428 0.119555,-0.86796 0.496899,-1.69019 0.08626,-0.18796 0.10967,-0.23144 0.124614,-0.23144 0.03326,0 0.09434,0.044 0.153477,0.11052 l 0.05817,0.0654 -0.02271,0.0874 c -0.01249,0.048 -0.05072,0.16729 -0.08496,0.26501 -0.208879,0.59617 -0.247464,0.74948 -0.247542,0.98358 -7.4e-5,0.23757 0.06113,0.39505 0.217932,0.5607 0.182989,0.19331 0.401917,0.32145 0.665699,0.38964 0.14983,0.0387 0.275316,0.0532 0.462105,0.0532 0.419186,0 0.772498,-0.0791 1.4829,-0.33181 0.198332,-0.0706 0.272963,-0.10722 0.336448,-0.16524 0.100946,-0.0923 0.129204,-0.19124 0.129064,-0.45207 -1.41e-4,-0.24211 -0.0249,-0.47195 -0.105809,-0.98185 -0.03048,-0.19211 -0.06959,-0.57826 -0.219384,-2.16624 l -0.18229,-1.93245 0.02381,-0.0827 c 0.0484,-0.16807 0.178717,-0.39948 0.372201,-0.66096 0.06704,-0.0906 0.08414,-0.10852 0.095,-0.0995 0.08518,0.0707 0.546334,0.89888 0.616181,1.1066 l 0.01527,0.0454 -0.146848,0.28654 -0.146849,0.28654 0.02571,0.37871 c 0.01414,0.2083 0.04217,0.53441 0.06229,0.7247 0.07121,0.6736 0.108191,1.11534 0.130715,1.56162 0.01349,0.26728 0.0137,0.89237 3.67e-4,1.08939 -0.0463,0.68417 -0.163398,1.12894 -0.369491,1.40347 -0.07635,0.10171 -0.237514,0.25647 -0.372707,0.35791 -0.402555,0.30205 -0.942697,0.52704 -1.449001,0.60356 -0.232679,0.0352 -0.422126,0.0436 -0.626296,0.0279 z m 2.124867,-0.0472 c -0.03343,-0.005 -0.07972,-0.0178 -0.102861,-0.0292 -0.03906,-0.0192 -0.04218,-0.0235 -0.04353,-0.0589 l -0.0015,-0.0382 0.06691,-0.0213 c 0.0368,-0.0117 0.140282,-0.0486 0.229959,-0.0819 0.486157,-0.18051 0.987322,-0.42904 1.702472,-0.84427 0.13629,-0.0791 0.363519,-0.20441 0.504953,-0.27838 0.308151,-0.16118 0.418531,-0.22628 0.547697,-0.32302 0.398047,-0.29814 0.810267,-0.90067 1.082435,-1.58216 0.09507,-0.23804 0.140087,-0.42371 0.324241,-1.33719 0.187788,-0.9315 0.286916,-1.35902 0.384822,-1.65965 0.05263,-0.16161 0.121793,-0.31341 0.167793,-0.36829 0.02914,-0.0348 0.03206,-0.036 0.07484,-0.0309 0.120239,0.0142 0.203757,0.10875 0.245221,0.27748 0.02395,0.0975 0.03375,0.20373 0.0436,0.47248 0.0051,0.13872 0.01149,0.26906 0.01424,0.28963 0.0028,0.0206 0.05325,0.68332 0.112223,1.47278 l 0.107218,1.43537 0.02853,0.0824 c 0.05806,0.16779 0.139519,0.31516 0.307152,0.55571 0.09071,0.13016 0.101782,0.14255 0.127488,0.1426 0.02534,8e-5 0.03274,-0.008 0.07407,-0.0771 0.130255,-0.21887 0.342555,-0.51944 0.488022,-0.69095 0.346488,-0.4085 0.677569,-0.62804 1.078911,-0.71543 0.06544,-0.0142 0.119956,-0.0173 0.308583,-0.0171 0.19879,1.8e-4 0.243945,0.003 0.341311,0.0215 0.396476,0.0753 0.768504,0.21498 1.356955,0.5096 0.138278,0.0692 0.297702,0.15081 0.354275,0.18129 0.132449,0.0714 0.220639,0.1076 0.357244,0.14682 0.09912,0.0285 0.192834,0.048 0.704093,0.14703 0.234544,0.0454 0.392741,0.0868 0.392741,0.10285 0,0.005 -0.09327,0.20485 -0.207259,0.4441 l -0.207258,0.435 -0.06626,-0.005 c -0.03644,-0.003 -0.219847,-0.008 -0.407568,-0.0107 l -0.341311,-0.006 -0.339124,0.0619 c -0.521462,0.0952 -0.629808,0.12441 -1.372106,0.36945 -0.533653,0.17617 -0.636217,0.20764 -0.85094,0.26107 -0.361193,0.0899 -0.57023,0.11731 -0.888344,0.11662 -0.344608,-7.6e-4 -0.533937,-0.0337 -0.916396,-0.1594 -0.223758,-0.0735 -0.283398,-0.0976 -0.348638,-0.14092 -0.124085,-0.0823 -0.234812,-0.29769 -0.30571,-0.5947 -0.08089,-0.33884 -0.11662,-0.69425 -0.154351,-1.53512 -0.02245,-0.50029 -0.03364,-0.69375 -0.05247,-0.90705 -0.02321,-0.26288 -0.06614,-0.53831 -0.08718,-0.55935 -0.02439,-0.0244 -0.03534,0.01 -0.08795,0.27531 -0.188248,0.94978 -0.325319,1.48647 -0.498136,1.95041 -0.268768,0.72152 -0.618723,1.21992 -1.060017,1.50964 -0.231227,0.1518 -0.437979,0.23805 -1.001174,0.41763 -0.371303,0.1184 -0.487237,0.1502 -0.804013,0.22057 -0.645985,0.14349 -1.146149,0.20584 -1.383946,0.17251 z m 7.242338,-1.51845 c 0.287673,-0.0382 0.513482,-0.0948 1.064888,-0.26708 0.344099,-0.1075 0.47089,-0.14336 0.561522,-0.15881 0.075,-0.0128 0.11131,-0.04 0.106464,-0.0798 -0.0026,-0.0213 -0.01498,-0.029 -0.102946,-0.0643 -0.055,-0.0221 -0.227864,-0.10148 -0.384138,-0.17645 -0.477532,-0.2291 -0.669058,-0.29054 -0.979204,-0.31414 l -0.122488,-0.009 -0.132831,0.0501 c -0.480754,0.18139 -0.802926,0.39502 -0.939215,0.62276 -0.03237,0.0541 -0.05858,0.14531 -0.05858,0.20388 v 0.0549 l 0.08182,0.0383 c 0.132242,0.0619 0.279468,0.10008 0.45586,0.11815 0.07187,0.007 0.337555,-0.003 0.448848,-0.0182 z m -4.091999,-1.00343 -0.04201,-0.0266 -0.05518,-0.2422 c -0.05491,-0.24099 -0.05555,-0.24294 -0.128454,-0.39051 -0.186151,-0.3768 -0.434845,-0.74464 -0.628797,-0.93006 -0.108678,-0.1039 -0.140672,-0.11947 -0.261422,-0.12723 -0.154138,-0.01 -0.440309,-0.0891 -0.609599,-0.16866 -0.206302,-0.097 -0.346922,-0.23247 -0.417655,-0.40243 -0.08901,-0.21387 -0.146933,-0.52202 -0.146933,-0.78168 0,-0.16471 0.0158,-0.25693 0.05906,-0.34476 0.02975,-0.0604 0.02981,-0.0604 0.08588,-0.0741 0.05063,-0.0123 0.06386,-0.012 0.13559,0.003 0.154624,0.0318 0.300559,0.11227 0.458198,0.25272 0.04372,0.0389 0.136061,0.11815 0.205211,0.176 0.297259,0.24869 0.396704,0.3364 0.532085,0.46928 0.301635,0.29607 0.478334,0.5392 0.650932,0.89566 0.151718,0.31335 0.317006,0.79268 0.384618,1.1154 0.02842,0.13567 0.04019,0.35528 0.02335,0.4359 -0.02953,0.14142 -0.141871,0.20592 -0.244878,0.14059 z"
       id="path2201"
       inkscape:connector-curvature="0" />
  </g>
</svg>
